<?xml version="1.0" encoding="utf-8"?>
<!-- Generator: Adobe Illustrator 16.0.0, SVG Export Plug-In . SVG Version: 6.00 Build 0)  -->
<!DOCTYPE svg PUBLIC "-//W3C//DTD SVG 1.1//EN" "http://www.w3.org/Graphics/SVG/1.1/DTD/svg11.dtd">
<svg version="1.1" xmlns="http://www.w3.org/2000/svg" xmlns:xlink="http://www.w3.org/1999/xlink" x="0px" y="0px" width="160px"
	 height="160px" viewBox="0 0 160 160" enable-background="new 0 0 160 160" xml:space="preserve">
<g id="Layer_4">
</g>
<g id="Layer_1">
</g>
<g id="pop-ups">
	<g>
		<path fill="#6D6E70" d="M124.55,58.939h-14.034c-2.229,0-4.459-1.776-4.958-3.947l-2.375-10.331
			c-0.499-2.171-2.731-3.948-4.958-3.948H61.775c-2.229,0-4.459,1.777-4.958,3.948l-2.375,10.331
			c-0.499,2.171-2.731,3.947-4.958,3.947H35.45c-2.229,0-4.05,1.824-4.05,4.05v43.875c0,2.228,1.821,4.051,4.05,4.051h89.1
			c2.227,0,4.05-1.823,4.05-4.051V62.99C128.6,60.763,126.776,58.939,124.55,58.939z M80,104.801
			c-14.331,0-25.948-11.617-25.948-25.948c0-14.331,11.617-25.947,25.948-25.947c14.33,0,25.947,11.616,25.947,25.947
			C105.947,93.184,94.33,104.801,80,104.801z M62.153,78.853h4.05c0-7.609,6.188-13.797,13.797-13.797v-4.051
			C70.159,61.005,62.153,69.012,62.153,78.853z"/>
		<g>
			<path fill="#FFFFFF" d="M23.404,136.596c-31.206-31.208-31.206-81.984,0-113.191c31.206-31.206,81.984-31.206,113.19,0
				c31.207,31.207,31.207,81.982,0,113.191C105.389,167.801,54.61,167.801,23.404,136.596z M131.416,28.583
				c-28.351-28.351-74.481-28.351-102.833,0C0.232,56.935,0.232,103.065,28.584,131.417c28.351,28.35,74.481,28.35,102.832-0.002
				C159.767,103.065,159.767,56.935,131.416,28.583z"/>
			
				<rect x="76.338" y="3.624" transform="matrix(0.7071 0.7071 -0.7071 0.7071 79.9947 -33.1367)" fill="#FFFFFF" width="7.323" height="152.752"/>
		</g>
	</g>
</g>
</svg>
