<?xml version="1.0" encoding="utf-8"?>
<!-- Generator: Adobe Illustrator 16.0.0, SVG Export Plug-In . SVG Version: 6.00 Build 0)  -->
<!DOCTYPE svg PUBLIC "-//W3C//DTD SVG 1.1//EN" "http://www.w3.org/Graphics/SVG/1.1/DTD/svg11.dtd">
<svg version="1.1" xmlns="http://www.w3.org/2000/svg" xmlns:xlink="http://www.w3.org/1999/xlink" x="0px" y="0px"
	 width="63.221px" height="63.221px" viewBox="0 0 63.221 63.221" enable-background="new 0 0 63.221 63.221" xml:space="preserve">
<g id="Layer_4" display="none">
</g>
<g id="Layer_1">
	<g>
		<circle fill="#1A53F0" cx="31.61" cy="31.61" r="31.61"/>
		<path fill="#FFFFFF" d="M21.258,33.342c-5.361,0-9.725,4.363-9.725,9.726s4.363,9.726,9.725,9.726
			c5.363,0,9.727-4.363,9.727-9.726S26.621,33.342,21.258,33.342z M21.258,49.697c-3.656,0-6.631-2.974-6.631-6.63
			c0-3.656,2.975-6.631,6.631-6.631s6.631,2.975,6.631,6.631C27.889,46.723,24.914,49.697,21.258,49.697z M11.533,21.702
			c0,5.361,4.363,9.724,9.725,9.724c5.363,0,9.727-4.362,9.727-9.724c0-1.956-0.582-3.777-1.58-5.304c0-0.002,0-0.004-0.002-0.006
			c-0.621-1.994,2.023-2.06,2.023-2.06v-2.356H21.258C15.896,11.977,11.533,16.338,11.533,21.702z M27.889,21.702
			c0,3.655-2.975,6.629-6.631,6.629s-6.631-2.975-6.631-6.629c0-3.657,2.975-6.632,6.631-6.632S27.889,18.045,27.889,21.702z
			 M42.625,11.977c-5.363,0-9.727,4.362-9.727,9.726c0,5.361,4.363,9.724,9.727,9.724c5.361,0,9.725-4.362,9.725-9.724
			C52.35,16.338,47.986,11.977,42.625,11.977z M42.625,28.332c-3.656,0-6.631-2.975-6.631-6.629c0-3.657,2.975-6.632,6.631-6.632
			s6.631,2.975,6.631,6.632C49.256,25.357,46.281,28.332,42.625,28.332z"/>
	</g>
</g>
<g id="Layer_3" display="none">
</g>
</svg>
