<?xml version="1.0" encoding="UTF-8"?>
<svg width="23px" height="24px" viewBox="0 0 23 24" version="1.1" xmlns="http://www.w3.org/2000/svg" xmlns:xlink="http://www.w3.org/1999/xlink">
    <!-- Generator: Sketch 48.2 (47327) - http://www.bohemiancoding.com/sketch -->
    <title>diagonal_arrow</title>
    <desc>Created with Sketch.</desc>
    <defs></defs>
    <g id="Artboard" stroke="none" stroke-width="1" fill="none" fill-rule="evenodd" transform="translate(-17.000000, -15.000000)">
        <g id="diagonal_arrow" transform="translate(17.000000, 14.000000)" fill="#FFFFFF" fill-rule="nonzero">
            <path d="M0.5,24.369 C0.372,24.369 0.244,24.32 0.146,24.223 C-0.049,24.028 -0.049,23.711 0.146,23.516 L22.1077554,1.53021215 C22.3027554,1.33521215 22.711226,0.853208094 22.906226,1.04820809 C23.101226,1.24320809 22.9093932,1.96453153 22.7143932,2.15953153 L0.854,24.222 C0.756,24.32 0.628,24.369 0.5,24.369 Z" id="Shape"></path>
            <path d="M22.4701766,24.9650963 L22.59682,24.9650963 C22.32082,24.9650963 22.050896,24.2220903 22.050896,23.9460903 L22.050896,2.001 L1.08930925,2.001 C0.813309245,2.001 0.0810439829,1.777 0.0810439829,1.501 C0.0810439829,1.225 0.813309245,1.001 1.08930925,1.001 L22.59682,1.001 C22.72982,1.001 22.3761766,0.908 22.4701766,1.001 C22.5641766,1.094 22.9821207,1.868 22.9821207,2.001 L22.9821207,23.9460903 C22.9821207,24.2220903 22.7461766,24.9650963 22.4701766,24.9650963 Z" id="Shape"></path>
        </g>
    </g>
</svg>