<svg xmlns="http://www.w3.org/2000/svg" viewBox="0 0 160 160"><defs><style>.cls-1{fill:#6d6e70;}.cls-2{fill:#fff;}</style></defs><title>Ресурс 3</title><g id="Слой_2" data-name="Слой 2"><g id="pop-ups"><path class="cls-1" d="M124.55,58.94h-14a5.34,5.34,0,0,1-5-3.95l-2.37-10.33a5.35,5.35,0,0,0-5-3.95H61.78a5.34,5.34,0,0,0-5,3.95L54.44,55a5.35,5.35,0,0,1-5,3.95h-14a4.06,4.06,0,0,0-4,4.05v43.88a4.06,4.06,0,0,0,4,4.05h89.1a4.06,4.06,0,0,0,4-4.05V63A4.06,4.06,0,0,0,124.55,58.94ZM80,104.8a25.95,25.95,0,1,1,25.95-25.95A25.95,25.95,0,0,1,80,104.8ZM62.15,78.85h4A13.81,13.81,0,0,1,80,65.06V61A17.87,17.87,0,0,0,62.15,78.85Z"/><path class="cls-2" d="M23.4,136.6a80,80,0,1,1,113.19,0A80.13,80.13,0,0,1,23.4,136.6Zm108-108a72.71,72.71,0,1,0,0,102.83A72.8,72.8,0,0,0,131.42,28.58Z"/><rect class="cls-2" x="3.62" y="76.34" width="152.75" height="7.32" transform="translate(-33.14 80.01) rotate(-45)"/></g></g></svg>