<svg xmlns="http://www.w3.org/2000/svg" viewBox="0 0 322.59 322.59"><defs><style>.cls-1{opacity:0.3;}.cls-2,.cls-3{fill:none;stroke-linecap:round;stroke-linejoin:round;stroke-width:2.7px;}.cls-2{stroke:#fff;}.cls-3{stroke:#fff200;}</style></defs><title>Ресурс 1</title><g id="Слой_2" data-name="Слой 2"><g id="Layer_1" data-name="Layer 1"><circle class="cls-1" cx="161.3" cy="161.3" r="161.3"/><rect class="cls-2" x="43.3" y="88.79" width="236" height="145.02" rx="11.71" ry="11.71"/><path class="cls-2" d="M264,202.28v8.11a8.13,8.13,0,0,1-8.11,8.11H66.72a8.13,8.13,0,0,1-8.11-8.11V112.21a8.13,8.13,0,0,1,8.11-8.11H255.88a8.13,8.13,0,0,1,8.11,8.11v8.11"/><line class="cls-2" x1="263.98" y1="150.49" x2="263.98" y2="172.11"/><rect class="cls-2" x="258.58" y="120.31" width="10.81" height="30.18"/><rect class="cls-2" x="258.58" y="172.11" width="10.81" height="30.18"/><circle class="cls-3" cx="198.49" cy="161.3" r="40.02"/><circle class="cls-2" cx="198.49" cy="161.3" r="13.73"/><line class="cls-3" x1="198.49" y1="127.93" x2="198.49" y2="140.83"/><line class="cls-3" x1="198.49" y1="181.77" x2="198.49" y2="194.67"/><line class="cls-3" x1="185.72" y1="130.47" x2="188.36" y2="136.84"/><line class="cls-3" x1="206.33" y1="180.21" x2="211.26" y2="192.13"/><line class="cls-3" x1="174.9" y1="137.7" x2="180.11" y2="142.92"/><line class="cls-3" x1="212.97" y1="175.77" x2="222.09" y2="184.89"/><line class="cls-3" x1="167.66" y1="148.53" x2="179.58" y2="153.46"/><line class="cls-3" x1="217.41" y1="169.13" x2="229.32" y2="174.07"/><line class="cls-3" x1="165.12" y1="161.3" x2="178.02" y2="161.3"/><line class="cls-3" x1="218.96" y1="161.3" x2="231.86" y2="161.3"/><line class="cls-3" x1="167.66" y1="174.07" x2="179.58" y2="169.13"/><line class="cls-3" x1="217.41" y1="153.46" x2="229.32" y2="148.52"/><line class="cls-3" x1="174.9" y1="184.89" x2="184.02" y2="175.77"/><line class="cls-3" x1="212.97" y1="146.82" x2="222.09" y2="137.7"/><line class="cls-3" x1="185.72" y1="192.13" x2="190.66" y2="180.21"/><line class="cls-3" x1="206.33" y1="142.38" x2="211.26" y2="130.46"/><polyline class="cls-2" points="186.94 152.94 183.08 137.7 195.67 147.32"/><rect class="cls-2" x="68.22" y="114.46" width="12.75" height="12.75"/><rect class="cls-2" x="88.72" y="114.46" width="12.75" height="12.75"/><rect class="cls-2" x="109.22" y="114.46" width="12.75" height="12.75"/><rect class="cls-2" x="68.22" y="134.5" width="12.75" height="12.75"/><rect class="cls-2" x="88.72" y="134.5" width="12.75" height="12.75"/><rect class="cls-2" x="109.22" y="134.5" width="12.75" height="12.75"/><rect class="cls-2" x="68.22" y="154.54" width="12.75" height="12.75"/><rect class="cls-2" x="88.72" y="154.54" width="12.75" height="12.75"/><rect class="cls-2" x="88.72" y="173.72" width="12.75" height="12.75"/><rect class="cls-2" x="109.22" y="154.54" width="12.75" height="12.75"/></g></g></svg>