<?xml version="1.0" encoding="utf-8"?>
<!-- Generator: Adobe Illustrator 16.0.0, SVG Export Plug-In . SVG Version: 6.00 Build 0)  -->
<!DOCTYPE svg PUBLIC "-//W3C//DTD SVG 1.1//EN" "http://www.w3.org/Graphics/SVG/1.1/DTD/svg11.dtd">
<svg version="1.1" id="Layer_1" xmlns="http://www.w3.org/2000/svg" xmlns:xlink="http://www.w3.org/1999/xlink" x="0px" y="0px"
	 width="40px" height="40px" viewBox="0 0 40 40" enable-background="new 0 0 40 40" xml:space="preserve">
<path fill="#FFFFFF" d="M40,22.722v-5.444l-5.34-0.801c-0.373-1.56-0.984-3.024-1.801-4.353l3.209-4.341l-3.852-3.85l-4.342,3.208
	c-1.328-0.814-2.793-1.427-4.352-1.801L22.723,0h-5.445l-0.801,5.34c-1.559,0.374-3.025,0.986-4.354,1.801l-4.34-3.208l-3.85,3.85
	l3.209,4.341c-0.816,1.329-1.43,2.793-1.803,4.353L0,17.278v5.444l5.34,0.802c0.373,1.558,0.986,3.024,1.803,4.353l-3.209,4.34
	l3.85,3.851l4.34-3.209c1.328,0.816,2.795,1.429,4.354,1.803L17.277,40h5.445l0.801-5.339c1.559-0.374,3.023-0.986,4.352-1.803
	l4.342,3.209l3.852-3.851l-3.209-4.34c0.816-1.328,1.428-2.795,1.801-4.353L40,22.722z M20,30.13
	c-5.594,0-10.129-4.535-10.129-10.13c0-5.594,4.535-10.129,10.129-10.129c5.596,0,10.131,4.535,10.131,10.129
	C30.131,25.595,25.596,30.13,20,30.13z"/>
</svg>
