<?xml version="1.0" encoding="utf-8"?>
<!-- Generator: Adobe Illustrator 16.0.0, SVG Export Plug-In . SVG Version: 6.00 Build 0)  -->
<!DOCTYPE svg PUBLIC "-//W3C//DTD SVG 1.1//EN" "http://www.w3.org/Graphics/SVG/1.1/DTD/svg11.dtd">
<svg version="1.1" id="Layer_1" xmlns="http://www.w3.org/2000/svg" xmlns:xlink="http://www.w3.org/1999/xlink" x="0px" y="0px"
	 width="260.046px" height="23.779px" viewBox="0 0 260.046 23.779" enable-background="new 0 0 260.046 23.779"
	 xml:space="preserve">
<g>
	<path d="M0,0h20.29v3.375h-8.381v20.29H8.306V3.375H0V0z"/>
	<path d="M41.679,23.665l-6.561-12.895h4.285c0.48,0,0.897-0.114,1.251-0.341s0.645-0.518,0.873-0.872
		c0.228-0.354,0.392-0.746,0.493-1.176c0.101-0.43,0.152-0.834,0.152-1.213c0-0.404-0.07-0.828-0.208-1.271
		c-0.139-0.442-0.329-0.854-0.569-1.232c-0.241-0.379-0.538-0.689-0.891-0.929c-0.354-0.24-0.759-0.36-1.214-0.36H28.633v20.29
		h-3.565V0h14.715c0.834,0,1.618,0.184,2.351,0.55c0.733,0.367,1.378,0.873,1.935,1.517c0.556,0.645,0.999,1.41,1.327,2.294
		c0.328,0.885,0.493,1.833,0.493,2.844c0,0.834-0.133,1.638-0.398,2.408c-0.265,0.772-0.632,1.473-1.1,2.105
		c-0.468,0.632-1.018,1.157-1.65,1.574c-0.632,0.417-1.315,0.688-2.048,0.815l4.854,9.557H41.679z"/>
	<path d="M50.477,0h3.603v12.971c0.126,1.011,0.442,1.959,0.948,2.844c0.505,0.886,1.138,1.656,1.896,2.313
		c0.758,0.658,1.618,1.176,2.579,1.555c0.96,0.38,1.972,0.569,3.034,0.569s2.073-0.189,3.034-0.569
		c0.96-0.379,1.813-0.896,2.56-1.555c0.746-0.657,1.365-1.428,1.858-2.313c0.493-0.885,0.802-1.833,0.929-2.844V0h3.641v11.908
		c0,1.644-0.316,3.186-0.948,4.627c-0.632,1.441-1.486,2.699-2.56,3.773c-1.075,1.075-2.345,1.922-3.812,2.541
		c-1.466,0.62-3.034,0.93-4.703,0.93c-1.668,0-3.236-0.31-4.703-0.93c-1.467-0.619-2.744-1.466-3.831-2.541
		c-1.087-1.074-1.947-2.332-2.579-3.773c-0.632-1.441-0.948-2.983-0.948-4.627V0z"/>
	<path d="M99.589,3.375H86.164c-1.138,0-1.985,0.322-2.541,0.967c-0.557,0.645-0.834,1.46-0.834,2.446
		c0,0.885,0.228,1.618,0.683,2.2c0.455,0.582,1.188,0.974,2.2,1.176v3.375c-0.885,0-1.726-0.177-2.522-0.531
		c-0.796-0.354-1.492-0.84-2.086-1.459c-0.594-0.62-1.062-1.34-1.403-2.162c-0.341-0.821-0.512-1.688-0.512-2.598
		c0-1.011,0.158-1.934,0.474-2.769c0.316-0.834,0.745-1.548,1.29-2.143c0.543-0.594,1.188-1.056,1.934-1.384
		C83.591,0.165,84.381,0,85.216,0h14.374V3.375z M79.527,20.29h13.387c1.138,0,1.984-0.322,2.541-0.968
		c0.556-0.645,0.834-1.46,0.834-2.445c0-0.859-0.228-1.58-0.683-2.162c-0.455-0.581-1.188-0.973-2.199-1.176v-3.413
		c0.884,0,1.726,0.177,2.522,0.531c0.796,0.354,1.491,0.841,2.085,1.46c0.594,0.62,1.068,1.34,1.422,2.161
		c0.354,0.822,0.531,1.688,0.531,2.599c0,1.011-0.165,1.934-0.493,2.769c-0.329,0.834-0.765,1.549-1.309,2.143
		c-0.544,0.594-1.188,1.056-1.934,1.384c-0.746,0.329-1.536,0.493-2.37,0.493H79.527V20.29z"/>
	<path d="M104.443,0h20.29v3.375h-8.381v20.29h-3.603V3.375h-8.306V0z"/>
	<path d="M138.233,23.665v-8.268L127.994,0h4.438l7.547,11.226L147.791,0h4.398l-10.314,15.208v8.457H138.233z"/>

</g>
</svg>
