<?xml version="1.0" encoding="utf-8"?>
<!-- Generator: Adobe Illustrator 16.0.0, SVG Export Plug-In . SVG Version: 6.00 Build 0)  -->
<!DOCTYPE svg PUBLIC "-//W3C//DTD SVG 1.1//EN" "http://www.w3.org/Graphics/SVG/1.1/DTD/svg11.dtd">
<svg version="1.1" xmlns="http://www.w3.org/2000/svg" xmlns:xlink="http://www.w3.org/1999/xlink" x="0px" y="0px"
	 width="255.428px" height="252.001px" viewBox="0 0 255.428 252.001" enable-background="new 0 0 255.428 252.001"
	 xml:space="preserve">
<g id="Layer_4">
</g>
<g id="Layer_1">
	<g>
		<path d="M84.541,112.692c-10.569,0-19.167-8.597-19.167-19.164c0-7.019,3.831-13.469,9.997-16.833
			c0.486-0.265,1.093-0.085,1.357,0.399c0.265,0.484,0.086,1.092-0.399,1.356c-5.523,3.014-8.955,8.791-8.955,15.077
			c0,9.464,7.701,17.164,17.167,17.164c9.462,0,17.16-7.7,17.16-17.164c0-2.248-0.547-4.546-1.673-7.023
			c-0.228-0.503-0.006-1.096,0.497-1.324c0.501-0.231,1.095-0.007,1.324,0.496c1.246,2.743,1.852,5.312,1.852,7.852
			C103.701,104.096,95.106,112.692,84.541,112.692z"/>
		<path d="M84.541,101.458c-4.07,0-7.381-3.312-7.381-7.381s3.311-7.381,7.381-7.381c4.071,0,7.383,3.312,7.383,7.381
			S88.612,101.458,84.541,101.458z M84.541,88.696c-2.967,0-5.381,2.414-5.381,5.381s2.414,5.381,5.381,5.381
			c2.968,0,5.383-2.414,5.383-5.381S87.509,88.696,84.541,88.696z"/>
		<path d="M170.888,112.692c-10.565,0-19.161-8.597-19.161-19.164c0-2.536,0.605-5.104,1.849-7.851
			c0.227-0.504,0.82-0.727,1.323-0.498s0.726,0.82,0.498,1.324c-1.124,2.48-1.67,4.778-1.67,7.024
			c0,9.464,7.698,17.164,17.161,17.164c9.461,0,17.159-7.7,17.159-17.164c0-6.284-3.428-12.063-8.947-15.077
			c-0.485-0.266-0.663-0.873-0.398-1.357c0.265-0.484,0.871-0.663,1.357-0.398c6.161,3.367,9.988,9.816,9.988,16.833
			C190.047,104.096,181.452,112.692,170.888,112.692z"/>
		<path d="M170.888,101.458c-4.072,0-7.385-3.312-7.385-7.381s3.313-7.381,7.385-7.381c4.067,0,7.376,3.312,7.376,7.381
			S174.955,101.458,170.888,101.458z M170.888,88.696c-2.969,0-5.385,2.414-5.385,5.381s2.416,5.381,5.385,5.381
			c2.964,0,5.376-2.414,5.376-5.381S173.852,88.696,170.888,88.696z"/>
		<path d="M46.378,9.706c-0.06,0-0.121-0.005-0.182-0.017L4.246,1.984c-0.543-0.1-0.903-0.621-0.803-1.164
			c0.1-0.543,0.62-0.904,1.164-0.803l41.95,7.705c0.543,0.1,0.903,0.621,0.803,1.164C47.272,9.369,46.852,9.706,46.378,9.706z"/>
		<path fill="none" stroke="#000000" stroke-width="2" stroke-linecap="round" stroke-linejoin="round" stroke-miterlimit="10" d="
			M38.188,11.276"/>
		<path fill="none" stroke="#000000" stroke-width="2" stroke-linecap="round" stroke-linejoin="round" stroke-miterlimit="10" d="
			M67.287,29.62"/>
		<path d="M127.715,96.179c-0.227,0-0.453-0.076-0.639-0.23L84.022,60.235c-0.425-0.353-0.483-0.982-0.131-1.408
			c0.353-0.424,0.983-0.484,1.408-0.131l38.379,31.835L98.243,49.225c-0.29-0.471-0.143-1.086,0.327-1.376
			c0.471-0.291,1.086-0.143,1.376,0.327l28.62,46.479c0.257,0.417,0.174,0.958-0.196,1.279
			C128.183,96.097,127.949,96.179,127.715,96.179z"/>
		<path fill="none" stroke="#000000" stroke-width="2" stroke-linecap="round" stroke-linejoin="round" stroke-miterlimit="10" d="
			M59.463,21.794"/>
		<path d="M127.715,96.179c-0.106,0-0.215-0.017-0.321-0.053L47.034,68.851c-0.204-0.069-0.379-0.202-0.501-0.379l-17.67-25.563
			c-0.314-0.454-0.2-1.077,0.254-1.391c0.456-0.314,1.078-0.201,1.392,0.254l17.482,25.29l80.046,27.169
			c0.523,0.178,0.803,0.746,0.625,1.269C128.521,95.917,128.131,96.179,127.715,96.179z"/>
		<path fill="none" stroke="#000000" stroke-width="2" stroke-linecap="round" stroke-linejoin="round" stroke-miterlimit="10" d="
			M117.191,46.255"/>
		<path fill="none" stroke="#000000" stroke-width="2" stroke-linecap="round" stroke-linejoin="round" stroke-miterlimit="10" d="
			M127.715,23.993"/>
		<path d="M127.716,24.993c-0.069,0-0.14-0.007-0.21-0.022l-34.073-7.3l-33.82,5.112c-0.543,0.072-1.056-0.294-1.138-0.84
			s0.293-1.056,0.839-1.139l34.001-5.139c0.12-0.017,0.242-0.013,0.359,0.012l34.251,7.338c0.54,0.115,0.884,0.647,0.769,1.188
			C128.592,24.672,128.177,24.993,127.716,24.993z"/>
		<path fill="none" stroke="#000000" stroke-width="2" stroke-linecap="round" stroke-linejoin="round" stroke-miterlimit="10" d="
			M93.464,16.655"/>
		<path d="M99.095,49.7c-0.18,0-0.358-0.049-0.514-0.143l-31.808-19.08c-0.07-0.042-0.135-0.093-0.192-0.15L45.67,9.413
			c-0.391-0.391-0.391-1.023,0-1.414s1.023-0.391,1.414,0l20.823,20.827l31.401,18.836l17.749-2.398l10.6-0.616
			c0.557-0.029,1.024,0.389,1.056,0.94c0.032,0.551-0.389,1.024-0.941,1.056l-10.523,0.609l-18.021,2.438
			C99.184,49.697,99.139,49.7,99.095,49.7z"/>
		<path fill="none" stroke="#000000" stroke-width="2" stroke-linecap="round" stroke-linejoin="round" stroke-miterlimit="10" d="
			M35.186,24.913"/>
		<path fill="none" stroke="#000000" stroke-width="2" stroke-linecap="round" stroke-linejoin="round" stroke-miterlimit="10" d="
			M87.656,127.985"/>
		<path fill="none" stroke="#000000" stroke-width="2" stroke-linecap="round" stroke-linejoin="round" stroke-miterlimit="10" d="
			M114.75,108.142"/>
		<path fill="none" stroke="#000000" stroke-width="2" stroke-linecap="round" stroke-linejoin="round" stroke-miterlimit="10" d="
			M127.715,95.179"/>
		<path fill="none" stroke="#000000" stroke-width="2" stroke-linecap="round" stroke-linejoin="round" stroke-miterlimit="10" d="
			M69.011,63.624"/>
		<path d="M84.66,60.466c-0.169,0-0.34-0.043-0.497-0.133L64.511,49.047l-34.987-5.719c-0.545-0.09-0.915-0.604-0.826-1.148
			c0.089-0.544,0.598-0.913,1.148-0.826l35.166,5.748c0.119,0.02,0.233,0.061,0.337,0.12l19.81,11.377
			c0.479,0.275,0.644,0.887,0.369,1.365C85.343,60.286,85.007,60.466,84.66,60.466z"/>
		<path d="M67.289,30.62c-0.048,0-0.097-0.003-0.146-0.011l-32.102-4.707c-0.171-0.024-0.333-0.094-0.469-0.2L3.813,1.79
			C3.377,1.451,3.298,0.823,3.637,0.388C3.976-0.05,4.604-0.129,5.041,0.212l30.551,23.75l31.841,4.669
			c0.546,0.08,0.924,0.588,0.844,1.135C68.204,30.263,67.776,30.62,67.289,30.62z"/>
		<path fill="none" stroke="#000000" stroke-width="2" stroke-linecap="round" stroke-linejoin="round" stroke-miterlimit="10" d="
			M64.852,48.089"/>
		<path d="M113.846,157.483c-0.121,0-0.243-0.021-0.362-0.067l-54.872-21.311c-0.515-0.2-0.771-0.78-0.57-1.295
			c0.201-0.515,0.781-0.768,1.294-0.57l54.872,21.311c0.515,0.2,0.771,0.78,0.57,1.295
			C114.624,157.241,114.246,157.483,113.846,157.483z"/>
		<path d="M31.821,146.577c-0.316,0-0.628-0.149-0.822-0.43L5.318,109.204c-0.184-0.265-0.229-0.602-0.121-0.905l21.608-60.838
			L1.775,78.199c-0.349,0.428-0.978,0.492-1.407,0.144c-0.428-0.349-0.493-0.979-0.144-1.407L28.91,41.709
			c0.308-0.378,0.84-0.478,1.266-0.24c0.424,0.239,0.615,0.748,0.452,1.207L7.254,108.484l25.388,36.522
			c0.315,0.453,0.203,1.076-0.25,1.392C32.217,146.52,32.018,146.577,31.821,146.577z"/>
		<path fill="none" stroke="#000000" stroke-width="2" stroke-linecap="round" stroke-linejoin="round" stroke-miterlimit="10" d="
			M47.355,67.903"/>
		<path fill="none" stroke="#000000" stroke-width="2" stroke-linecap="round" stroke-linejoin="round" stroke-miterlimit="10" d="
			M84.661,59.466"/>
		<path d="M29.686,43.341c-0.421,0-0.813-0.269-0.951-0.69L19.283,13.6c-0.17-0.525,0.117-1.09,0.642-1.261
			c0.528-0.168,1.09,0.117,1.261,0.642l9.451,29.051c0.17,0.525-0.117,1.09-0.642,1.261C29.892,43.325,29.788,43.341,29.686,43.341z
			"/>
		<path d="M14.763,85.353c-0.148,0-0.299-0.033-0.441-0.104L0.558,78.464c-0.495-0.244-0.699-0.844-0.455-1.339
			c0.245-0.494,0.843-0.699,1.339-0.454l13.764,6.785c0.495,0.244,0.699,0.844,0.455,1.339
			C15.486,85.147,15.132,85.353,14.763,85.353z"/>
		<path fill="none" stroke="#000000" stroke-width="2" stroke-linecap="round" stroke-linejoin="round" stroke-miterlimit="10" d="
			M31.52,101.247"/>
		<path fill="none" stroke="#000000" stroke-width="2" stroke-linecap="round" stroke-linejoin="round" stroke-miterlimit="10" d="
			M18.277,74.448"/>
		<path d="M21.67,186.808c-0.115,0-0.23-0.02-0.341-0.06c-0.328-0.119-0.57-0.401-0.639-0.743l-15.53-77.174
			c-0.075-0.375,0.07-0.76,0.374-0.992c0.305-0.232,0.713-0.271,1.056-0.099l52.573,26.407c17.108-1.785,42.782-4.546,44.251-4.924
			c0.899-0.413,3.63-1.202,12.934-3.462c0.535-0.135,1.077,0.199,1.208,0.735c0.13,0.537-0.199,1.078-0.736,1.208
			c-5.57,1.353-11.862,2.97-12.552,3.3c0.006-0.003,0.132-0.064,0.254-0.213c-0.423,0.48-2.72,0.919-45.443,5.375
			c-0.188,0.02-0.382-0.015-0.552-0.101l-51-25.618L22.326,184l19.448-15.596c0.43-0.345,1.06-0.276,1.406,0.154
			c0.345,0.432,0.276,1.061-0.155,1.406l-20.729,16.623C22.115,186.732,21.894,186.808,21.67,186.808z"/>
		<path fill="none" stroke="#000000" stroke-width="2" stroke-linecap="round" stroke-linejoin="round" stroke-miterlimit="10" d="
			M102.406,86.733"/>
		<path fill="none" stroke="#000000" stroke-width="2" stroke-linecap="round" stroke-linejoin="round" stroke-miterlimit="10" d="
			M103.744,130.161"/>
		<path d="M127.002,184.737c-0.392,0-0.764-0.231-0.924-0.616l-22.258-53.576c-0.212-0.51,0.03-1.096,0.54-1.308
			c0.51-0.209,1.095,0.03,1.307,0.54l22.258,53.576c0.212,0.51-0.03,1.096-0.54,1.308
			C127.26,184.713,127.13,184.737,127.002,184.737z"/>
		<path d="M116.582,127.733c-0.11,0-0.223-0.019-0.333-0.057c-0.521-0.185-0.794-0.755-0.61-1.276l11.133-31.555
			c0.184-0.52,0.755-0.792,1.275-0.61c0.521,0.185,0.794,0.755,0.61,1.276l-11.133,31.555
			C117.38,127.477,116.994,127.733,116.582,127.733z"/>
		<path d="M52.373,192.44c-0.389,0-0.749-0.228-0.912-0.591l-20.553-45.863c-0.226-0.504,0-1.096,0.503-1.321
			c0.503-0.228,1.095-0.001,1.322,0.503l19.014,42.43l1.704-17.294c0.054-0.55,0.546-0.942,1.093-0.897
			c0.549,0.054,0.951,0.544,0.897,1.093l-2.073,21.039c-0.044,0.451-0.387,0.816-0.834,0.89
			C52.48,192.437,52.426,192.44,52.373,192.44z"/>
		<path fill="none" stroke="#000000" stroke-width="2" stroke-linecap="round" stroke-linejoin="round" stroke-miterlimit="10" d="
			M74.965,141.021"/>
		<path d="M92.37,214.698c-0.284,0-0.559-0.121-0.752-0.341l-37.924-43.297c-0.364-0.416-0.322-1.048,0.094-1.411
			c0.415-0.363,1.047-0.323,1.411,0.093l36.451,41.616l7.355-59.884c0.068-0.549,0.575-0.942,1.115-0.87
			c0.548,0.067,0.938,0.566,0.871,1.114l-7.628,62.102c-0.048,0.392-0.322,0.718-0.699,0.834
			C92.567,214.684,92.468,214.698,92.37,214.698z"/>
		<path fill="none" stroke="#000000" stroke-width="2" stroke-linecap="round" stroke-linejoin="round" stroke-miterlimit="10" d="
			M54.446,170.401"/>
		<path fill="none" stroke="#000000" stroke-width="2" stroke-linecap="round" stroke-linejoin="round" stroke-miterlimit="10" d="
			M68.763,210.763"/>
		<path d="M92.371,214.698c-0.285,0-0.568-0.121-0.766-0.356c-0.355-0.423-0.301-1.054,0.122-1.409l35.632-29.961
			c0.423-0.354,1.053-0.301,1.409,0.122c0.355,0.423,0.301,1.054-0.122,1.409l-35.632,29.961
			C92.826,214.621,92.598,214.698,92.371,214.698z"/>
		<path fill="none" stroke="#000000" stroke-width="2" stroke-linecap="round" stroke-linejoin="round" stroke-miterlimit="10" d="
			M72.805,205.103"/>
		<path d="M127.715,251.634c-0.263,0-0.526-0.104-0.723-0.309L91.647,214.39c-0.382-0.399-0.368-1.032,0.031-1.414
			c0.399-0.382,1.031-0.367,1.414,0.031l35.345,36.936c0.382,0.399,0.368,1.032-0.031,1.414
			C128.212,251.542,127.963,251.634,127.715,251.634z"/>
		<path d="M83.068,252.001c-0.005,0-0.01,0-0.016,0c-0.369-0.006-0.705-0.214-0.873-0.542l-30.695-59.561
			c-0.253-0.491-0.061-1.094,0.431-1.347c0.491-0.254,1.094-0.061,1.347,0.431l29.84,57.9l15.614-28.1
			c0.268-0.483,0.877-0.659,1.36-0.389c0.482,0.269,0.657,0.877,0.388,1.359l-16.521,29.732
			C83.766,251.805,83.431,252.001,83.068,252.001z"/>
		<path d="M44.815,217.317c-0.378,0-0.737-0.216-0.906-0.576l-16.628-35.51c-0.234-0.5-0.019-1.096,0.481-1.329
			c0.5-0.234,1.096-0.019,1.33,0.481l16.248,34.697l15.726-5.376c0.521-0.178,1.091,0.1,1.27,0.623
			c0.179,0.522-0.1,1.091-0.623,1.27l-16.574,5.666C45.032,217.3,44.923,217.317,44.815,217.317z"/>
		<path fill="none" stroke="#000000" stroke-width="2" stroke-linecap="round" stroke-linejoin="round" stroke-miterlimit="10" d="
			M100.938,86.091"/>
		<path d="M127.715,141.128c-0.287,0-0.572-0.123-0.77-0.36l-11.133-13.395c-0.353-0.425-0.295-1.056,0.13-1.409
			c0.424-0.351,1.055-0.293,1.408,0.13l11.133,13.395c0.353,0.425,0.295,1.056-0.13,1.409
			C128.167,141.052,127.94,141.128,127.715,141.128z"/>
		<path d="M67.512,135.081c-20.48,0-37.143-16.662-37.143-37.143c0-12.336,6.108-23.841,16.339-30.775
			c0.458-0.31,1.079-0.19,1.389,0.268c0.31,0.457,0.19,1.078-0.267,1.389c-9.682,6.562-15.461,17.447-15.461,29.119
			c0,19.378,15.765,35.143,35.143,35.143c19.323,0,35.043-15.687,35.043-34.969c0-3.561-0.679-7.012-2.075-10.549
			c-0.203-0.514,0.049-1.095,0.563-1.298c0.517-0.199,1.095,0.05,1.297,0.563c1.49,3.775,2.214,7.467,2.214,11.283
			C104.555,118.497,87.938,135.081,67.512,135.081z"/>
		<path fill="none" stroke="#000000" stroke-width="2" stroke-linecap="round" stroke-linejoin="round" stroke-miterlimit="10" d="
			M127.38,94.63"/>
		<path fill="none" stroke="#000000" stroke-width="2" stroke-linecap="round" stroke-linejoin="round" stroke-miterlimit="10" d="
			M67.287,29.62"/>
		<path d="M99.095,49.7c-0.281,0-0.56-0.117-0.757-0.347c-0.361-0.418-0.314-1.05,0.104-1.41l28.62-24.707
			c0.417-0.361,1.048-0.315,1.41,0.104c0.361,0.418,0.314,1.05-0.104,1.41l-28.62,24.707C99.559,49.62,99.327,49.7,99.095,49.7z"/>
		<path fill="none" stroke="#000000" stroke-width="2" stroke-linecap="round" stroke-linejoin="round" stroke-miterlimit="10" d="
			M99.998,150.167"/>
		<path fill="none" stroke="#000000" stroke-width="2" stroke-linecap="round" stroke-linejoin="round" stroke-miterlimit="10" d="
			M103.744,130.161"/>
		<path fill="none" stroke="#000000" stroke-width="2" stroke-linecap="round" stroke-linejoin="round" stroke-miterlimit="10" d="
			M77.221,133.239"/>
		<path fill="none" stroke="#000000" stroke-width="2" stroke-linecap="round" stroke-linejoin="round" stroke-miterlimit="10" d="
			M99.998,150.167"/>
		<path d="M209.046,9.706c-0.474,0-0.894-0.337-0.982-0.819c-0.1-0.543,0.26-1.064,0.803-1.164l41.955-7.705
			c0.548-0.102,1.064,0.26,1.164,0.803c0.1,0.543-0.26,1.064-0.803,1.164l-41.955,7.705C209.167,9.701,209.105,9.706,209.046,9.706z
			"/>
		<path fill="none" stroke="#000000" stroke-width="2" stroke-linecap="round" stroke-linejoin="round" stroke-miterlimit="10" d="
			M217.237,11.276"/>
		<path fill="none" stroke="#000000" stroke-width="2" stroke-linecap="round" stroke-linejoin="round" stroke-miterlimit="10" d="
			M188.137,29.62"/>
		<path d="M127.715,96.179c-0.234,0-0.468-0.082-0.656-0.245c-0.37-0.321-0.453-0.862-0.196-1.279l28.618-46.479
			c0.29-0.47,0.905-0.618,1.376-0.327c0.47,0.29,0.617,0.905,0.327,1.376L131.75,90.531l38.377-31.835
			c0.426-0.354,1.056-0.293,1.408,0.131c0.353,0.425,0.294,1.056-0.131,1.408l-43.052,35.713
			C128.168,96.103,127.941,96.179,127.715,96.179z"/>
		<path fill="none" stroke="#000000" stroke-width="2" stroke-linecap="round" stroke-linejoin="round" stroke-miterlimit="10" d="
			M195.967,21.794"/>
		<path d="M127.715,96.179c-0.417,0-0.806-0.262-0.947-0.679c-0.178-0.522,0.103-1.091,0.625-1.269l80.043-27.169l17.484-25.29
			c0.314-0.456,0.936-0.568,1.392-0.254c0.454,0.313,0.568,0.937,0.254,1.391l-17.672,25.563c-0.122,0.177-0.298,0.31-0.501,0.379
			l-80.356,27.275C127.93,96.162,127.821,96.179,127.715,96.179z"/>
		<path fill="none" stroke="#000000" stroke-width="2" stroke-linecap="round" stroke-linejoin="round" stroke-miterlimit="10" d="
			M138.233,46.255"/>
		<path fill="none" stroke="#000000" stroke-width="2" stroke-linecap="round" stroke-linejoin="round" stroke-miterlimit="10" d="
			M127.715,23.993"/>
		<path d="M127.714,24.993c-0.461,0-0.876-0.321-0.977-0.79c-0.116-0.54,0.229-1.072,0.769-1.188l34.246-7.338
			c0.118-0.024,0.24-0.028,0.359-0.012l34.006,5.139c0.546,0.083,0.922,0.593,0.839,1.139c-0.082,0.546-0.593,0.913-1.138,0.84
			l-33.825-5.112l-34.068,7.3C127.854,24.986,127.783,24.993,127.714,24.993z"/>
		<path fill="none" stroke="#000000" stroke-width="2" stroke-linecap="round" stroke-linejoin="round" stroke-miterlimit="10" d="
			M161.961,16.655"/>
		<path d="M156.333,49.7c-0.044,0-0.089-0.003-0.134-0.009l-18.1-2.445l-10.442-0.603c-0.552-0.031-0.973-0.505-0.941-1.056
			c0.033-0.552,0.513-0.973,1.056-0.94l10.519,0.609l17.828,2.405l31.397-18.836L208.34,7.999c0.391-0.391,1.023-0.391,1.414,0
			s0.391,1.023,0,1.414l-20.91,20.914c-0.058,0.058-0.123,0.108-0.192,0.15l-31.804,19.08C156.691,49.651,156.513,49.7,156.333,49.7
			z"/>
		<path fill="none" stroke="#000000" stroke-width="2" stroke-linecap="round" stroke-linejoin="round" stroke-miterlimit="10" d="
			M220.242,24.913"/>
		<path fill="none" stroke="#000000" stroke-width="2" stroke-linecap="round" stroke-linejoin="round" stroke-miterlimit="10" d="
			M167.769,127.985"/>
		<path fill="none" stroke="#000000" stroke-width="2" stroke-linecap="round" stroke-linejoin="round" stroke-miterlimit="10" d="
			M140.677,108.142"/>
		<path fill="none" stroke="#000000" stroke-width="2" stroke-linecap="round" stroke-linejoin="round" stroke-miterlimit="10" d="
			M127.715,95.179"/>
		<path fill="none" stroke="#000000" stroke-width="2" stroke-linecap="round" stroke-linejoin="round" stroke-miterlimit="10" d="
			M186.418,63.624"/>
		<path d="M170.768,60.466c-0.346,0-0.683-0.18-0.868-0.502c-0.275-0.479-0.11-1.09,0.369-1.365l19.807-11.377
			c0.104-0.06,0.218-0.101,0.337-0.12l35.17-5.748c0.546-0.087,1.059,0.282,1.148,0.826c0.089,0.545-0.28,1.059-0.826,1.148
			l-34.99,5.719l-19.649,11.286C171.108,60.423,170.937,60.466,170.768,60.466z"/>
		<path d="M188.135,30.62c-0.488,0-0.915-0.357-0.988-0.854c-0.08-0.547,0.298-1.055,0.844-1.135l31.845-4.669l30.552-23.75
			c0.435-0.341,1.063-0.262,1.403,0.176c0.339,0.436,0.26,1.063-0.176,1.402l-30.76,23.912c-0.136,0.106-0.298,0.176-0.469,0.2
			l-32.105,4.707C188.232,30.617,188.184,30.62,188.135,30.62z"/>
		<path fill="none" stroke="#000000" stroke-width="2" stroke-linecap="round" stroke-linejoin="round" stroke-miterlimit="10" d="
			M190.573,48.089"/>
		<path d="M141.579,157.483c-0.4,0-0.778-0.242-0.932-0.638c-0.2-0.515,0.055-1.095,0.57-1.295l54.876-21.311
			c0.512-0.199,1.093,0.055,1.294,0.57c0.2,0.515-0.055,1.095-0.57,1.295l-54.876,21.311
			C141.822,157.462,141.7,157.483,141.579,157.483z"/>
		<path d="M223.608,143.151c-0.212,0-0.426-0.067-0.608-0.206c-0.438-0.336-0.521-0.964-0.186-1.402l25.351-33.086l-23.364-65.781
			c-0.163-0.459,0.028-0.968,0.452-1.207c0.423-0.237,0.958-0.138,1.266,0.24l28.685,35.227c0.349,0.429,0.284,1.059-0.144,1.407
			s-1.058,0.284-1.407-0.144l-25.029-30.738l21.608,60.838c0.113,0.319,0.058,0.674-0.148,0.943l-25.681,33.518
			C224.205,143.017,223.908,143.151,223.608,143.151z"/>
		<path fill="none" stroke="#000000" stroke-width="2" stroke-linecap="round" stroke-linejoin="round" stroke-miterlimit="10" d="
			M208.071,67.903"/>
		<path fill="none" stroke="#000000" stroke-width="2" stroke-linecap="round" stroke-linejoin="round" stroke-miterlimit="10" d="
			M170.767,59.466"/>
		<path d="M225.743,43.341c-0.102,0-0.207-0.016-0.309-0.049c-0.525-0.171-0.813-0.735-0.642-1.261l9.447-29.051
			c0.171-0.523,0.735-0.812,1.26-0.642c0.525,0.171,0.813,0.735,0.642,1.261l-9.447,29.051
			C226.557,43.072,226.165,43.341,225.743,43.341z"/>
		<path d="M240.665,85.353c-0.369,0-0.724-0.205-0.898-0.558c-0.244-0.495-0.041-1.095,0.455-1.339l13.764-6.785
			c0.497-0.246,1.095-0.04,1.339,0.454c0.244,0.495,0.041,1.095-0.455,1.339l-13.764,6.785
			C240.964,85.319,240.813,85.353,240.665,85.353z"/>
		<path fill="none" stroke="#000000" stroke-width="2" stroke-linecap="round" stroke-linejoin="round" stroke-miterlimit="10" d="
			M223.909,101.247"/>
		<path fill="none" stroke="#000000" stroke-width="2" stroke-linecap="round" stroke-linejoin="round" stroke-miterlimit="10" d="
			M237.151,74.448"/>
		<path d="M233.758,186.808c-0.228,0-0.452-0.078-0.633-0.226l-21.142-17.299c-0.427-0.351-0.49-0.98-0.141-1.407
			c0.35-0.428,0.979-0.49,1.407-0.142l19.856,16.247l14.798-73.533l-51,25.618c-0.171,0.086-0.364,0.122-0.552,0.101
			c-42.219-4.403-44.97-4.887-45.433-5.363c0.122,0.142,0.238,0.199,0.244,0.202c-0.69-0.331-6.984-1.947-12.557-3.301
			c-0.537-0.13-0.866-0.671-0.736-1.208c0.13-0.536,0.675-0.867,1.208-0.735c9.281,2.254,12.026,3.052,12.933,3.464l0.001-0.003
			c1.42,0.374,27.13,3.138,44.256,4.925l52.573-26.407c0.341-0.171,0.751-0.134,1.056,0.099c0.304,0.232,0.449,0.617,0.374,0.992
			l-15.531,77.174c-0.069,0.344-0.313,0.626-0.644,0.744C233.985,186.788,233.871,186.808,233.758,186.808z"/>
		<path fill="none" stroke="#000000" stroke-width="2" stroke-linecap="round" stroke-linejoin="round" stroke-miterlimit="10" d="
			M153.021,86.733"/>
		<path fill="none" stroke="#000000" stroke-width="2" stroke-linecap="round" stroke-linejoin="round" stroke-miterlimit="10" d="
			M151.684,130.161"/>
		<path d="M128.427,184.737c-0.133,0-0.268-0.026-0.397-0.083c-0.507-0.22-0.739-0.809-0.52-1.315l23.256-53.576
			c0.219-0.507,0.81-0.74,1.315-0.519c0.507,0.22,0.739,0.809,0.52,1.315l-23.256,53.576
			C129.182,184.513,128.813,184.737,128.427,184.737z"/>
		<path d="M138.842,127.733c-0.412,0-0.798-0.257-0.943-0.667l-11.127-31.555c-0.184-0.521,0.089-1.093,0.61-1.276
			c0.522-0.181,1.092,0.091,1.275,0.61l11.127,31.555c0.184,0.521-0.089,1.093-0.61,1.276
			C139.064,127.715,138.952,127.733,138.842,127.733z"/>
		<path d="M203.052,192.44c-0.049,0-0.099-0.004-0.148-0.011c-0.453-0.068-0.802-0.436-0.847-0.892l-2.073-21.039
			c-0.054-0.549,0.348-1.039,0.897-1.093c0.547-0.045,1.039,0.348,1.093,0.897l1.684,17.087l19.028-45.624
			c0.213-0.51,0.798-0.751,1.308-0.538c0.51,0.213,0.751,0.798,0.538,1.308l-20.557,49.289
			C203.818,192.202,203.451,192.44,203.052,192.44z"/>
		<path fill="none" stroke="#000000" stroke-width="2" stroke-linecap="round" stroke-linejoin="round" stroke-miterlimit="10" d="
			M180.456,141.021"/>
		<path d="M163.052,214.698c-0.098,0-0.197-0.015-0.294-0.044c-0.376-0.116-0.65-0.443-0.698-0.834l-7.622-62.102
			c-0.067-0.549,0.323-1.047,0.871-1.114c0.541-0.072,1.046,0.321,1.114,0.87l7.35,59.884l36.454-41.616
			c0.363-0.416,0.996-0.456,1.411-0.093s0.458,0.995,0.094,1.411l-37.927,43.297C163.611,214.577,163.335,214.698,163.052,214.698z"
			/>
		<path fill="none" stroke="#000000" stroke-width="2" stroke-linecap="round" stroke-linejoin="round" stroke-miterlimit="10" d="
			M200.979,170.401"/>
		<path fill="none" stroke="#000000" stroke-width="2" stroke-linecap="round" stroke-linejoin="round" stroke-miterlimit="10" d="
			M186.666,210.763"/>
		<path d="M163.051,214.698c-0.227,0-0.456-0.077-0.643-0.234l-35.624-29.961c-0.423-0.355-0.477-0.986-0.122-1.409
			s0.985-0.477,1.409-0.122l35.624,29.961c0.423,0.355,0.477,0.986,0.122,1.409C163.619,214.577,163.336,214.698,163.051,214.698z"
			/>
		<path fill="none" stroke="#000000" stroke-width="2" stroke-linecap="round" stroke-linejoin="round" stroke-miterlimit="10" d="
			M182.624,205.103"/>
		<path d="M127.715,251.634c-0.249,0-0.498-0.092-0.691-0.277c-0.399-0.382-0.413-1.015-0.031-1.414l35.337-36.936
			c0.381-0.398,1.015-0.413,1.414-0.031s0.413,1.015,0.031,1.414l-35.337,36.936C128.241,251.53,127.978,251.634,127.715,251.634z"
			/>
		<path d="M172.359,252.001c-0.363,0-0.697-0.196-0.874-0.514l-16.527-29.732c-0.269-0.483-0.095-1.092,0.388-1.36
			c0.483-0.271,1.092-0.094,1.36,0.388l15.62,28.101l29.837-57.9c0.252-0.491,0.857-0.685,1.347-0.431
			c0.491,0.253,0.684,0.855,0.431,1.347l-30.692,59.561c-0.169,0.328-0.505,0.536-0.874,0.542
			C172.37,252.001,172.365,252.001,172.359,252.001z"/>
		<path d="M210.613,217.317c-0.107,0-0.217-0.018-0.323-0.054l-16.581-5.666c-0.523-0.179-0.802-0.747-0.623-1.27
			s0.745-0.801,1.27-0.623l15.732,5.376l16.244-34.697c0.234-0.501,0.83-0.717,1.33-0.481c0.5,0.233,0.716,0.829,0.482,1.329
			l-16.624,35.51C211.351,217.102,210.992,217.317,210.613,217.317z"/>
		<path fill="none" stroke="#000000" stroke-width="2" stroke-linecap="round" stroke-linejoin="round" stroke-miterlimit="10" d="
			M154.486,86.091"/>
		<path fill="none" stroke="#000000" stroke-width="2" stroke-linecap="round" stroke-linejoin="round" stroke-miterlimit="10" d="
			M134.225,149.64"/>
		<path d="M127.714,141.128c-0.225,0-0.452-0.075-0.639-0.23c-0.425-0.354-0.483-0.983-0.13-1.408l11.127-13.395
			c0.353-0.425,0.983-0.483,1.408-0.131c0.425,0.354,0.483,0.983,0.13,1.408l-11.127,13.395
			C128.286,141.005,128.001,141.128,127.714,141.128z"/>
		<path d="M187.916,135.081c-20.427,0-37.046-16.584-37.046-36.969c0-3.811,0.726-7.501,2.218-11.283
			c0.203-0.514,0.783-0.763,1.297-0.563c0.514,0.203,0.766,0.784,0.563,1.298c-1.399,3.544-2.079,6.995-2.079,10.549
			c0,19.282,15.722,34.969,35.046,34.969c19.376,0,35.14-15.765,35.14-35.143c0-11.674-5.779-22.56-15.459-29.119
			c-0.457-0.311-0.577-0.932-0.267-1.389c0.309-0.458,0.931-0.577,1.389-0.268c10.23,6.933,16.337,18.438,16.337,30.775
			C225.056,118.419,208.395,135.081,187.916,135.081z"/>
		<path fill="none" stroke="#000000" stroke-width="2" stroke-linecap="round" stroke-linejoin="round" stroke-miterlimit="10" d="
			M128.05,94.63"/>
		<path fill="none" stroke="#000000" stroke-width="2" stroke-linecap="round" stroke-linejoin="round" stroke-miterlimit="10" d="
			M188.137,29.62"/>
		<path d="M156.333,49.7c-0.231,0-0.464-0.08-0.653-0.243L127.062,24.75c-0.418-0.36-0.464-0.992-0.104-1.41
			c0.361-0.419,0.992-0.465,1.41-0.104l28.618,24.707c0.418,0.36,0.464,0.992,0.104,1.41C156.892,49.583,156.613,49.7,156.333,49.7z
			"/>
		<path fill="none" stroke="#000000" stroke-width="2" stroke-linecap="round" stroke-linejoin="round" stroke-miterlimit="10" d="
			M155.43,150.167"/>
		<path fill="none" stroke="#000000" stroke-width="2" stroke-linecap="round" stroke-linejoin="round" stroke-miterlimit="10" d="
			M151.684,130.161"/>
		<path fill="none" stroke="#000000" stroke-width="2" stroke-linecap="round" stroke-linejoin="round" stroke-miterlimit="10" d="
			M178.208,133.239"/>
		<path fill="none" stroke="#000000" stroke-width="2" stroke-linecap="round" stroke-linejoin="round" stroke-miterlimit="10" d="
			M155.43,150.167"/>
	</g>
</g>
<g id="POP-UP">
</g>
</svg>
